<svg xmlns="http://www.w3.org/2000/svg" viewBox="0 0 1683.594 156.605">
  <defs>
    <style>
      .cls-1, .cls-2, .cls-3 {
        fill: #fff;
      }

      .cls-1 {
        font-size: 20px;
        font-family: HelveticaNeue-Thin, Helvetica Neue;
        font-weight: 200;
      }

      .cls-2 {
        font-size: 100px;
        font-family: FontAwesome;
      }

      .cls-4 {
        fill: #afafaf;
      }
    </style>
  </defs>
  <g id="Group_657" data-name="Group 657" transform="translate(-105 -561.688)">
    <text id="Government_calendar" data-name="Government calendar" class="cls-1" transform="translate(105 686.294)"><tspan x="2.064" y="19">Government calendar</tspan></text>
    <text id="_" data-name="" class="cls-2" transform="translate(163.819 569.899)"><tspan x="0" y="86"></tspan></text>
    <text id="Irembo_platform" data-name="Irembo platform" class="cls-1" transform="translate(377.271 686.294)"><tspan x="52.702" y="19">Irembo platform</tspan></text>
    <g id="Group_9" data-name="Group 9" transform="translate(451.258 561.688)">
      <g id="Group_203" data-name="Group 203" transform="translate(22.196 27.724)">
        <path id="Path_145" data-name="Path 145" class="cls-3" d="M45.751,53.073a1.448,1.448,0,0,1-1.274-.637,1.539,1.539,0,0,1,.159-2.23,16.73,16.73,0,1,0-27.392-12.9,18.874,18.874,0,0,0,.8,5.1,1.663,1.663,0,1,1-3.185.956,19.251,19.251,0,0,1-.956-6.052A19.914,19.914,0,0,1,33.807,17.4,20.189,20.189,0,0,1,54.033,37.307a19.961,19.961,0,0,1-7.326,15.448A1.707,1.707,0,0,1,45.751,53.073Z" transform="translate(-13.9 -17.4)"/>
      </g>
      <g id="Group_204" data-name="Group 204" transform="translate(7.704 13.207)">
        <path id="Path_146" data-name="Path 146" class="cls-4" d="M39.518,77.426A34.713,34.713,0,0,1,34.9,8.309a1.439,1.439,0,0,1,1.752,1.433c0,.956-.478,1.752-1.433,1.752A31.532,31.532,0,1,0,71.21,42.708a30.152,30.152,0,0,0-.956-7.485,1.564,1.564,0,0,1,3.026-.8,35.356,35.356,0,0,1,.956,8.122A34.833,34.833,0,0,1,39.518,77.426Z" transform="translate(-4.8 -8.285)"/>
      </g>
      <g id="Group_205" data-name="Group 205" transform="translate(6.728 0)">
        <path id="Path_147" data-name="Path 147" class="cls-3" d="M39.881,95.4A47.865,47.865,0,0,1,5,80.27a3.227,3.227,0,0,1,.159-4.459,3.079,3.079,0,0,1,4.459.159A41.073,41.073,0,0,0,39.881,89.029a41.4,41.4,0,0,0,3.5-82.654,3.2,3.2,0,1,1,.637-6.37,48.076,48.076,0,0,1,43.8,47.618A48.054,48.054,0,0,1,39.881,95.4Z" transform="translate(-4.187 0.008)"/>
      </g>
      <g id="Group_206" data-name="Group 206" transform="translate(0 0)">
        <path id="Path_148" data-name="Path 148" class="cls-4" d="M3.207,29.627a7.009,7.009,0,0,1-1.593-.319,3.135,3.135,0,0,1-1.274-4.3A47.973,47.973,0,0,1,38.4.005a3.2,3.2,0,0,1,.637,6.37,41.208,41.208,0,0,0-32.966,21.5A3.355,3.355,0,0,1,3.207,29.627Z" transform="translate(0.038 0.008)"/>
      </g>
    </g>
    <text id="Vision_and_policies" data-name="Vision and policies" class="cls-1" transform="translate(700.84 686.294)"><tspan x="40.632" y="19">Vision and policies</tspan></text>
    <text id="_2" data-name="" class="cls-2" transform="translate(775.443 569.899)"><tspan x="0" y="86"></tspan></text>
    <text id="ID_VISA_Citizenship_" data-name="ID, VISA &amp; Citizenship " class="cls-1" transform="translate(1024.409 686.294)"><tspan x="27.612" y="19">ID, VISA &amp; Citizenship </tspan></text>
    <text id="_3" data-name="" class="cls-2" transform="translate(1091.12 569.899)"><tspan x="0" y="86"></tspan></text>
    <text id="Genocide_against_Tutsi" data-name="Genocide against Tutsi" class="cls-1" transform="translate(1347.977 686.294)"><tspan x="22.872" y="19">Genocide against Tutsi</tspan></text>
    <g id="Group_207" data-name="Group 207" transform="matrix(1, 0.017, -0.017, 1, 1458.66, 561.688)">
      <path id="Path_630" data-name="Path 630" class="cls-3" d="M.021,64.569V51.109S-.694,38.82,6.2,30.757C14.912,20.548,14.782,5.072,13.351,0c0,0,10.274,21.133,3.251,39.34A68.1,68.1,0,0,1,7.044,54.62C1.257,61.253.021,64.569.021,64.569Z" transform="translate(32.01 54.23)"/>
      <path id="Path_631" data-name="Path 631" class="cls-3" d="M22.863,42.916S-9.129,40.315,2.575,13.33L8.622,0s-.845,10.274,7.023,16.906C26.5,26.2,24.163,35.113,22.863,42.916Z" transform="translate(0 42.071)"/>
      <path id="Path_632" data-name="Path 632" class="cls-3" d="M9.245,57.677S-7.011,46.622,3.588,27.31,13.992,0,13.992,0A155.561,155.561,0,0,0,21.21,33.162a48.2,48.2,0,0,0,3.251,7.8c13.135,25.1-4.552,42.2-4.552,42.2S25.762,65.8,19.454,52.15,7.945,53.58,9.245,57.677Z" transform="translate(13.227 0)"/>
    </g>
    <text id="Visit_Rwanda" data-name="Visit Rwanda" class="cls-1" transform="translate(1671.594 686.294)"><tspan x="5.013" y="19">Visit Rwanda</tspan></text>
    <g id="Group_208" data-name="Group 208" transform="translate(1683.849 593.627)">
      <g id="Group_1" data-name="Group 1" transform="translate(0 0)">
        <path id="Path_1" data-name="Path 1" class="cls-3" d="M29.416,80.063h-.27a5.088,5.088,0,0,0-2.878-.943,4.25,4.25,0,0,0-1.637.067,23.939,23.939,0,0,0-2.359.866h-.539a24.189,24.189,0,0,1-.809-2.4,1.759,1.759,0,0,1,.2-1.232c.664-1.02.655-1.223-.231-2.1-.279-.279-.635-.712-.606-1.04a1.281,1.281,0,0,0-.963-1.406,5.606,5.606,0,0,0-1.714-.529,10.8,10.8,0,0,1-4.168-1.2,5.1,5.1,0,0,0-3.254-.529,5.166,5.166,0,0,1-.674.048,1.915,1.915,0,0,0-1.7,1.492c-.241,1.309-.462,2.628-.674,3.832a6.531,6.531,0,0,0-1.993-.963A6.6,6.6,0,0,1,1.8,72.458a.921.921,0,0,1-.279-.684c.039-.9.135-1.791.212-2.676A2.064,2.064,0,0,0,.641,66.98a3.928,3.928,0,0,1-.741-.8v-.27a4.183,4.183,0,0,1,.616-.838A.623.623,0,0,0,.689,64.2C.6,64.015.5,63.842.4,63.668a2.792,2.792,0,0,1,1.675-4.284c.106-.039.212-.067.318-.1A4.376,4.376,0,0,0,5.513,56.14c.337-.943.539-1.049,1.511-1.146A7.1,7.1,0,0,0,9.979,54.3c2.619-1.656,3.475-4.351,3.389-7.259a57.66,57.66,0,0,0-.866-6.248,28.155,28.155,0,0,1-.4-3.8,8.027,8.027,0,0,1,1.434-4.14c1.117-1.868,2.2-3.745,3.35-5.593a4.832,4.832,0,0,1,1.165-1.367,8.1,8.1,0,0,0,2.975-3.8,2.568,2.568,0,0,1,.606-1.03A2.614,2.614,0,0,1,22.87,20.4a15.646,15.646,0,0,1,2.686-.125,1.061,1.061,0,0,0,1.069-.626,10.766,10.766,0,0,1,3.88-3.928,4.358,4.358,0,0,1,2.859-.78,5.137,5.137,0,0,0,3.947-.943c1.174-.9,2.4-1.319,3.735-.289.414.318.712.1.857-.347a4.1,4.1,0,0,1,.144-.452,1.372,1.372,0,0,1,1.271-.953,2.169,2.169,0,0,1,1.194.7,4.51,4.51,0,0,1,1.261,3.427,3.188,3.188,0,0,0,.058.674,2.269,2.269,0,0,0,2.513,1.983,8.161,8.161,0,0,0,1.829-.606c.943-.452,1.858-.992,2.773-1.511a3.046,3.046,0,0,0,.6-.52,8.5,8.5,0,0,1,1.357-1.4,13.658,13.658,0,0,1,2.436-1.126,1.728,1.728,0,0,0,1.174-1.415c.087-.481.154-.972.25-1.463a1.217,1.217,0,0,1,1.2-1.126,2.074,2.074,0,0,0,1.146-.481,34.021,34.021,0,0,0,2.676-2.724,7.182,7.182,0,0,0,.664-1.511c.154-.3.347-.7.616-.789a1.817,1.817,0,0,0,1.223-1.742c.048-.375.1-.761.173-1.126A1.213,1.213,0,0,1,67.972.14,5.47,5.47,0,0,1,68.761.3,2.8,2.8,0,0,0,70.918.179a2.214,2.214,0,0,1,2.031.2,9.075,9.075,0,0,0-.6.809.807.807,0,0,0,.231,1.223A.922.922,0,0,1,72.9,3.8c-.087.164-.1.5.01.587a.806.806,0,0,0,.645.144.976.976,0,0,1,1.28.818,17.45,17.45,0,0,0,.828,2.243c.327.751.732,1.473,1.078,2.214a.772.772,0,0,1,0,.51c-.337,1.069-.116,1.54.924,2a5.239,5.239,0,0,1,1.425.732c1.338,1.271,3.052,1.6,4.717,2.118.443.135,1.03.385,1.194.741a3.383,3.383,0,0,1,.029,2.686.821.821,0,0,0,.116.963,8.393,8.393,0,0,1,2.06,3.918,1.392,1.392,0,0,0,.106.25c.347.77.732.924,1.521.645.116-.039.25-.058.5-.125a7.6,7.6,0,0,1,.183,1.54c-.116,1.251-.366,2.484-.481,3.735a2.611,2.611,0,0,0,.221,1.386,1.505,1.505,0,0,1,.1,1.329,2.493,2.493,0,0,0-.116,1.271c.25,1.146.472,2.243-.4,3.244-.135.154-.26.491-.183.616.472.761-.048,1.107-.539,1.5a2.71,2.71,0,0,0-.366.491c.462.1.953.048,1.165.279a1.886,1.886,0,0,1,.26,1.126,3.447,3.447,0,0,1-.164.857c-.125.578-.241,1.155-.375,1.819a1.494,1.494,0,0,1,1.868.491c.491.635.866,1.367,1.3,2.06v.674c-.327.992-.645,1.993-.992,2.975a13.566,13.566,0,0,0-.818,6.132,3.449,3.449,0,0,1-.481,2.147A5.252,5.252,0,0,1,87.7,59.2a2.584,2.584,0,0,1-3.109.1,6.371,6.371,0,0,0-1.2-.6,1.276,1.276,0,0,0-1.935.655c-.732,1.377-1.02,1.463-2.58,1.107a2.73,2.73,0,0,0-1.6.029,3.126,3.126,0,0,1-2.339.048c-1.473-.491-2.484-1.656-3.658-2.58a.957.957,0,0,1-.318-.5.852.852,0,0,0-.876-.751,2.61,2.61,0,0,1-.847-.212,1.388,1.388,0,0,0-1.656.52A4.3,4.3,0,0,1,61.9,58.2a3.048,3.048,0,0,0-.366-.164c-.366-.116-.587-.019-.655.4a1.79,1.79,0,0,1-.3.8c-.549.741-1.126,1.454-1.714,2.166a1.888,1.888,0,0,1-2.1.684,3.573,3.573,0,0,1-1.319-.635c-.838-.732-1.579-1.569-2.416-2.31a2.853,2.853,0,0,0-1.425-.866,2.8,2.8,0,0,1-1.993-.9,1.4,1.4,0,0,0-.693-.375c-.135-.019-.443.193-.452.318-.1,1.2-.183,2.407-.2,3.61a11.491,11.491,0,0,1,.019,2.984,21.933,21.933,0,0,0-.934,6.825A7.556,7.556,0,0,1,45.5,75.673a3.782,3.782,0,0,1-4.438,1.492c-.982-.308-1.213-.154-1.386.886-.135.818-.347.982-1.174,1.1a6.563,6.563,0,0,1-3.119-.645,1.974,1.974,0,0,0-1.617.019,3.583,3.583,0,0,1-1.425.549A5.754,5.754,0,0,0,29.416,80.063Z" transform="translate(0.1 -0.006)"/>
      </g>
    </g>
  </g>
</svg>
