<svg id="Layer_1" data-name="Layer 1" xmlns="http://www.w3.org/2000/svg" viewBox="0 0 141.73 141.73"><defs><style>.cls-1{fill:none;stroke:#fff;stroke-miterlimit:10;stroke-width:1.74px;}.cls-2{fill:#fff;}</style></defs><title>real</title><circle class="cls-1" cx="70.62" cy="71.56" r="62.56"/><g id="Group_9" data-name="Group 9"><g id="Group_203" data-name="Group 203"><path id="Path_145" data-name="Path 145" class="cls-2" d="M79,83.24a1.09,1.09,0,0,1-1-.48,1.16,1.16,0,0,1,.07-1.64l0,0a12.64,12.64,0,1,0-20.69-9.74,14.26,14.26,0,0,0,.6,3.85,1.26,1.26,0,1,1-2.39.77v0a14.54,14.54,0,0,1-.72-4.57,15,15,0,0,1,15-15,15.25,15.25,0,0,1,15.28,15A15.08,15.08,0,0,1,79.7,83,1.29,1.29,0,0,1,79,83.24Z"/></g><g id="Group_204" data-name="Group 204"><path id="Path_146" data-name="Path 146" class="cls-2" d="M70.2,97.55a26.22,26.22,0,0,1-3.49-52.2A1.09,1.09,0,0,1,68,46.43c0,.72-.36,1.32-1.08,1.32A23.82,23.82,0,1,0,94.13,71.33a22.77,22.77,0,0,0-.72-5.65,1.18,1.18,0,1,1,2.29-.6,26.7,26.7,0,0,1,.72,6.13A26.31,26.31,0,0,1,70.2,97.55Z"/></g><g id="Group_205" data-name="Group 205"><path id="Path_147" data-name="Path 147" class="cls-2" d="M70.2,107.42A36.15,36.15,0,0,1,43.85,96,2.44,2.44,0,0,1,44,92.62a2.33,2.33,0,0,1,3.29,0l.08.09a31.29,31.29,0,1,0,25.5-52.56,2.42,2.42,0,1,1,.48-4.81,36.09,36.09,0,0,1-3.12,72.05Z"/></g><g id="Group_206" data-name="Group 206"><path id="Path_148" data-name="Path 148" class="cls-2" d="M40.61,57.74a5.29,5.29,0,0,1-1.2-.24,2.37,2.37,0,0,1-1-3.2l0,0A36.23,36.23,0,0,1,67.19,35.37a2.42,2.42,0,1,1,.48,4.81,31.12,31.12,0,0,0-24.9,16.24A2.53,2.53,0,0,1,40.61,57.74Z"/></g></g></svg>