<svg id="Layer_1" data-name="Layer 1" xmlns="http://www.w3.org/2000/svg" viewBox="0 0 141.73 141.73"><defs><style>.cls-1{fill:none;stroke:#fff;stroke-miterlimit:10;stroke-width:1.85px;}.cls-2{fill:#fff;}</style></defs><title>real</title><circle class="cls-1" cx="70.62" cy="71.1" r="66.56"/><g id="Group_207" data-name="Group 207"><path id="Path_630" data-name="Path 630" class="cls-2" d="M71.88,117.09,72,107s-.38-9.22,4.89-15.18c6.66-7.54,6.76-19.15,5.75-23,0,0,7.43,16,1.94,29.54a51.06,51.06,0,0,1-7.36,11.33C72.84,114.62,71.88,117.09,71.88,117.09Z"/><path id="Path_631" data-name="Path 631" class="cls-2" d="M65.43,91.62s-24-2.36-14.83-22.44l4.7-9.92S54.54,67,60.35,72C68.37,79.14,66.51,85.79,65.43,91.62Z"/><path id="Path_632" data-name="Path 632" class="cls-2" d="M65.49,71.14s-12-8.5-3.85-22.84S69.78,28,69.78,28a116.64,116.64,0,0,0,5,25,36.14,36.14,0,0,0,2.34,5.89c9.53,19-4,31.58-4,31.58s4.61-12.94.05-23.26S64.57,68.05,65.49,71.14Z"/></g></svg>