<svg id="Layer_1" data-name="Layer 1" xmlns="http://www.w3.org/2000/svg" viewBox="0 0 141.73 141.73"><defs><style>.cls-1{fill:none;stroke:#fff;stroke-miterlimit:10;stroke-width:1.78px;}.cls-2{isolation:isolate;}.cls-3{fill:#fff;}</style></defs><title>real-new</title><circle class="cls-1" cx="71.75" cy="71.24" r="63.97"/><g id="_3" data-name=" 3"><g class="cls-2"><path class="cls-3" d="M108.11,48.05v43.9a5.79,5.79,0,0,1-5.78,5.78H89.63V94.26a1.11,1.11,0,0,0-1.16-1.16H86.17A1.11,1.11,0,0,0,85,94.26v3.47H57.29V94.26a1.11,1.11,0,0,0-1.15-1.16H53.82a1.11,1.11,0,0,0-1.15,1.16v3.47H40a5.79,5.79,0,0,1-5.78-5.78V48.05A5.79,5.79,0,0,1,40,42.28h62.38a5.79,5.79,0,0,1,5.78,5.78ZM69.81,82.33a5.64,5.64,0,0,0,1.34-3.84,25.68,25.68,0,0,0-.32-4.24,17.14,17.14,0,0,0-1.06-3.72,6.35,6.35,0,0,0-2.18-2.82,5.88,5.88,0,0,0-3.5-1L63,67.33l-1.35.78q-.49.27-1.28.63a7.61,7.61,0,0,1-1.55.52,7.15,7.15,0,0,1-3,0,7.61,7.61,0,0,1-1.55-.52q-.79-.36-1.28-.63l-1.35-.78-1.08-.65a5.87,5.87,0,0,0-3.5,1,6.34,6.34,0,0,0-2.18,2.82,17.09,17.09,0,0,0-1.06,3.72,25.68,25.68,0,0,0-.32,4.24,5.64,5.64,0,0,0,1.34,3.84A4.19,4.19,0,0,0,48,83.86H66.53A4.19,4.19,0,0,0,69.81,82.33ZM63.08,65.5A8.19,8.19,0,1,0,51.49,53.92,8.19,8.19,0,1,0,63.08,65.5Zm35.79-5.9V57.29a1.11,1.11,0,0,0-1.16-1.16H76.92a1.11,1.11,0,0,0-1.16,1.16V59.6a1.11,1.11,0,0,0,1.16,1.16H97.72a1.11,1.11,0,0,0,1.16-1.16Zm0,9.1v-2a1.29,1.29,0,0,0-1.3-1.3H77.07a1.29,1.29,0,0,0-1.3,1.3v2a1.29,1.29,0,0,0,1.3,1.3h20.5a1.29,1.29,0,0,0,1.3-1.3Zm0,9.39V75.77a1.11,1.11,0,0,0-1.16-1.16H76.92a1.11,1.11,0,0,0-1.16,1.16v2.31a1.11,1.11,0,0,0,1.16,1.15H97.72a1.11,1.11,0,0,0,1.16-1.15Z"/></g></g></svg>