<svg id="Layer_1" data-name="Layer 1" xmlns="http://www.w3.org/2000/svg" viewBox="0 0 141.73 141.73"><defs><style>.cls-1{fill:none;stroke:#fff;stroke-miterlimit:10;stroke-width:1.79px;}.cls-2{fill:#fff;}</style></defs><title>real</title><circle class="cls-1" cx="71.63" cy="70.38" r="64.37"/><g id="Group_208" data-name="Group 208"><g id="Group_1" data-name="Group 1"><path id="Path_1" data-name="Path 1" class="cls-2" d="M57.14,102.71h-.25a4.7,4.7,0,0,0-2.66-.87,3.93,3.93,0,0,0-1.51.06,22.14,22.14,0,0,0-2.18.8H50a22.37,22.37,0,0,1-.75-2.22,1.63,1.63,0,0,1,.18-1.14c.61-.94.61-1.13-.21-1.94-.26-.26-.59-.66-.56-1a1.18,1.18,0,0,0-.89-1.3,5.18,5.18,0,0,0-1.58-.49,10,10,0,0,1-3.85-1.11,4.72,4.72,0,0,0-3-.49,4.78,4.78,0,0,1-.62,0,1.77,1.77,0,0,0-1.57,1.38c-.22,1.21-.43,2.43-.62,3.54a6,6,0,0,0-1.84-.89,6.1,6.1,0,0,1-3.09-1.45.85.85,0,0,1-.26-.63c0-.83.12-1.66.2-2.47a1.91,1.91,0,0,0-1-2,3.63,3.63,0,0,1-.69-.74v-.25a3.87,3.87,0,0,1,.57-.77.58.58,0,0,0,.17-.8h0c-.08-.17-.17-.33-.27-.49a2.58,2.58,0,0,1,1.55-4l.29-.09A4,4,0,0,0,35,80.59c.31-.87.5-1,1.4-1.06a6.57,6.57,0,0,0,2.73-.64c2.42-1.53,3.21-4,3.13-6.71a53.32,53.32,0,0,0-.8-5.78,26,26,0,0,1-.37-3.51,7.42,7.42,0,0,1,1.33-3.83c1-1.73,2-3.46,3.1-5.17a4.47,4.47,0,0,1,1.08-1.26,7.49,7.49,0,0,0,2.75-3.51,2.37,2.37,0,0,1,.56-1,2.42,2.42,0,0,1,1.14-.61,14.47,14.47,0,0,1,2.48-.12,1,1,0,0,0,1-.58,10,10,0,0,1,3.59-3.63,4,4,0,0,1,2.64-.72,4.75,4.75,0,0,0,3.65-.87c1.09-.83,2.22-1.22,3.45-.27.38.29.66.09.79-.32a3.79,3.79,0,0,1,.13-.42A1.27,1.27,0,0,1,70,39.74a2,2,0,0,1,1.1.65,4.17,4.17,0,0,1,1.17,3.17,3,3,0,0,0,.05.62A2.1,2.1,0,0,0,74.64,46a7.55,7.55,0,0,0,1.69-.56c.87-.42,1.72-.92,2.56-1.4a2.82,2.82,0,0,0,.55-.48,7.86,7.86,0,0,1,1.25-1.29,12.63,12.63,0,0,1,2.25-1A1.6,1.6,0,0,0,84,39.93c.08-.44.14-.9.23-1.35a1.13,1.13,0,0,1,1.11-1,1.92,1.92,0,0,0,1.06-.44,31.46,31.46,0,0,0,2.47-2.52,6.64,6.64,0,0,0,.61-1.4c.14-.28.32-.65.57-.73a1.68,1.68,0,0,0,1.13-1.61c0-.35.09-.7.16-1a1.12,1.12,0,0,1,1.22-1l.18,0a5.06,5.06,0,0,1,.73.15,2.59,2.59,0,0,0,2-.11,2,2,0,0,1,1.88.18,8.39,8.39,0,0,0-.55.75.75.75,0,0,0,.1,1.05l.12.08a.85.85,0,0,1,.3,1.28c-.08.15-.09.46,0,.54a.75.75,0,0,0,.6.13.9.9,0,0,1,1.18.76,16.14,16.14,0,0,0,.77,2.07c.3.69.68,1.36,1,2a.71.71,0,0,1,0,.47c-.31,1-.11,1.42.85,1.85a4.84,4.84,0,0,1,1.32.68c1.24,1.18,2.82,1.48,4.36,2,.41.12,1,.36,1.1.69a3.13,3.13,0,0,1,0,2.48.76.76,0,0,0,.11.89,7.76,7.76,0,0,1,1.9,3.62,1.29,1.29,0,0,0,.1.23c.32.71.68.85,1.41.6l.46-.12a7,7,0,0,1,.17,1.42c-.11,1.16-.34,2.3-.44,3.45a2.41,2.41,0,0,0,.2,1.28,1.39,1.39,0,0,1,.09,1.23,2.31,2.31,0,0,0-.11,1.18c.23,1.06.44,2.07-.37,3-.12.14-.24.45-.17.57.44.7,0,1-.5,1.39a2.51,2.51,0,0,0-.34.45c.43.09.88,0,1.08.26a1.74,1.74,0,0,1,.24,1,3.19,3.19,0,0,1-.15.79c-.12.53-.22,1.07-.35,1.68a1.38,1.38,0,0,1,1.73.45c.45.59.8,1.26,1.2,1.9v.62c-.3.92-.6,1.84-.92,2.75a12.54,12.54,0,0,0-.76,5.67,3.19,3.19,0,0,1-.44,2A4.86,4.86,0,0,1,111,83.42a2.39,2.39,0,0,1-2.87.09A5.89,5.89,0,0,0,107,83a1.18,1.18,0,0,0-1.79.61c-.68,1.27-.94,1.35-2.39,1a2.52,2.52,0,0,0-1.48,0,2.89,2.89,0,0,1-2.16,0,11.83,11.83,0,0,1-3.38-2.39.88.88,0,0,1-.29-.46.79.79,0,0,0-.81-.69,2.41,2.41,0,0,1-.78-.2,1.28,1.28,0,0,0-1.53.48,4,4,0,0,1-5.25,1.09l-.34-.15c-.34-.11-.54,0-.61.37a1.66,1.66,0,0,1-.28.74c-.51.69-1,1.34-1.58,2a1.75,1.75,0,0,1-1.94.63,3.3,3.3,0,0,1-1.22-.59c-.77-.68-1.46-1.45-2.23-2.14a2.64,2.64,0,0,0-1.32-.8,2.59,2.59,0,0,1-1.84-.83,1.29,1.29,0,0,0-.64-.35c-.12,0-.41.18-.42.29-.09,1.11-.17,2.23-.18,3.34a10.63,10.63,0,0,1,0,2.76,20.28,20.28,0,0,0-.86,6.31A7,7,0,0,1,72,98.65a3.5,3.5,0,0,1-4.1,1.38c-.91-.28-1.12-.14-1.28.82-.12.76-.32.91-1.09,1a6.07,6.07,0,0,1-2.88-.6,1.83,1.83,0,0,0-1.5,0,3.31,3.31,0,0,1-1.32.51A5.32,5.32,0,0,0,57.14,102.71Z"/></g></g></svg>